<?xml version="1.0" standalone="no"?><!DOCTYPE svg PUBLIC "-//W3C//DTD SVG 1.1//EN" "http://www.w3.org/Graphics/SVG/1.1/DTD/svg11.dtd" ><svg xmlns="http://www.w3.org/2000/svg"><metadata></metadata><defs><font id="fonteditor" horiz-adv-x="1000"><font-face font-family="Source Han Sans K Light" font-weight="300" font-stretch="normal" units-per-em="1000" panose-1="2 11 3 0 0 0 0 0 0 0" ascent="880" descent="-120" x-height="0" bbox="24 -120 974 880" underline-thickness="50" underline-position="-125" unicode-range="U+2f00-9ad8" /><missing-glyph horiz-adv-x="1000" d="M100 880 L900 880 L900 -120 L100 -120 L100 880 ZM818 830 L182 830 L500 421 L818 830 ZM850 -29 L850 789 L532 380 L850 -29 ZM818 -70 L500 339 L182 -70 L818 -70 ZM150 -29 L468 380 L150 789 L150 -29 Z" /><glyph glyph-name="uni4E00" unicode="&#x2f00;&#x4e00;" d="M954 416 L954 363 L49 363 L49 416 L954 416 Z" /><glyph glyph-name="uni9AD8" unicode="&#x2fbc;&#x9ad8;" d="M357 190 L357 64 L647 64 L647 190 L357 190 ZM357 25 L357 -31 L312 -31 L312 229 L692 229 L692 25 L357 25 ZM889 -9 Q889 -56 852 -66 Q823 -74 681 -74 Q675 -48 663 -27 Q780 -30 818 -28 Q841 -27 841 -8 L841 305 L163 305 L163 -74 L116 -74 L116 348 L889 348 L889 -9 ZM716 580 L282 580 L282 462 L716 462 L716 580 ZM764 620 L764 422 L236 422 L236 620 L764 620 ZM929 730 L929 686 L69 686 L69 730 L471 730 L471 832 L520 832 L520 730 L929 730 Z" /><glyph glyph-name="uni300C" unicode="&#x300c;" d="M656 842 L962 842 L962 796 L704 796 L704 191 L656 191 L656 842 Z" /><glyph glyph-name="uni300D" unicode="&#x300d;" d="M344 -82 L38 -82 L38 -36 L296 -36 L296 569 L344 569 L344 -82 Z" /><glyph glyph-name="uni4E2D" unicode="&#x4e2d;" d="M845 309 L845 604 L522 604 L522 309 L845 309 ZM473 309 L473 604 L150 604 L150 309 L473 309 ZM894 651 L894 201 L845 201 L845 262 L522 262 L522 -72 L473 -72 L473 262 L150 262 L150 196 L103 196 L103 651 L473 651 L473 832 L522 832 L522 651 L894 651 Z" /><glyph glyph-name="uni4F19" unicode="&#x4f19;" d="M943 623 Q865 435 814 349 L776 368 Q841 479 896 645 L943 623 ZM322 353 Q393 436 408 637 L452 630 Q437 420 362 327 L322 353 ZM337 815 Q293 703 231 604 L231 -71 L184 -71 L184 532 Q119 440 56 377 Q41 402 24 419 Q194 577 292 828 L337 815 ZM652 433 Q652 328 708 217 Q793 50 974 -28 Q953 -56 943 -73 Q789 -5 701 131 Q642 224 627 319 Q615 226 557 132 Q473 -3 324 -73 Q306 -48 292 -32 Q467 49 549 217 Q603 328 603 433 L603 828 L652 828 L652 433 Z" /><glyph glyph-name="uni4F34" unicode="&#x4f34;" d="M903 545 Q848 645 725 754 L762 779 Q892 664 941 574 L903 545 ZM501 761 Q439 626 342 534 Q327 550 308 564 Q404 654 454 774 L501 761 ZM337 816 Q293 704 231 605 L231 -68 L184 -68 L184 533 Q119 441 56 378 Q41 403 24 420 Q194 578 292 829 L337 816 ZM952 217 L643 217 L643 -67 L595 -67 L595 217 L298 217 L298 264 L595 264 L595 450 L354 450 L354 496 L595 496 L595 832 L643 832 L643 496 L888 496 L888 450 L643 450 L643 264 L952 264 L952 217 Z" /><glyph glyph-name="uni4F5C" unicode="&#x4f5c;" d="M352 815 Q306 699 245 597 L245 -72 L196 -72 L196 520 Q134 432 76 374 Q62 402 46 418 Q209 574 306 829 L352 815 ZM629 617 L629 449 L933 449 L933 404 L629 404 L629 229 L947 229 L947 183 L629 183 L629 -73 L581 -73 L581 617 L494 617 Q425 488 345 399 Q320 421 307 430 Q446 576 532 819 L577 807 Q547 724 516 663 L953 663 L953 617 L629 617 Z" /><glyph glyph-name="uni52A1" unicode="&#x52a1;" d="M855 251 Q824 0 780 -40 Q757 -61 714 -62 Q659 -64 575 -58 Q574 -38 559 -14 Q630 -21 701 -21 Q732 -21 742 -12 Q779 19 805 231 L479 231 Q435 105 337 32 Q246 -36 86 -72 Q78 -49 61 -28 Q350 24 429 231 L133 231 L133 275 L442 275 Q456 325 463 384 L513 379 Q505 323 492 275 L858 275 L855 251 ZM337 683 L318 663 Q384 572 513 515 Q678 583 764 683 L337 683 ZM838 707 Q754 579 567 493 Q722 435 953 419 Q934 398 926 376 Q677 399 512 469 Q325 393 69 362 Q63 386 49 406 Q279 428 459 494 Q348 552 286 634 Q211 568 135 525 Q121 545 101 559 Q296 667 395 834 L447 825 Q421 780 376 726 L800 726 L809 729 L838 707 Z" /><glyph glyph-name="uni5408" unicode="&#x5408;" d="M251 274 L251 15 L750 15 L750 274 L251 274 ZM204 319 L799 319 L799 -75 L750 -75 L750 -30 L251 -30 L251 -75 L204 -75 L204 319 ZM751 505 L751 460 L247 460 L247 505 L751 505 ZM519 830 Q687 596 965 465 Q952 450 934 424 Q658 565 499 781 Q354 565 75 415 Q63 435 45 453 Q333 602 472 830 L519 830 Z" /><glyph glyph-name="uni552F" unicode="&#x552f;" d="M479 32 L670 32 L670 188 L479 188 L479 32 ZM670 585 L479 585 L479 432 L670 432 L670 585 ZM670 387 L479 387 L479 233 L670 233 L670 387 ZM288 681 L126 681 L126 242 L288 242 L288 681 ZM956 -14 L479 -14 L479 -74 L433 -74 L433 521 Q394 455 350 402 Q347 407 333 421 L333 197 L126 197 L126 122 L81 122 L81 726 L333 726 L333 462 Q447 603 510 824 L558 813 Q529 717 490 630 L672 630 Q714 725 742 820 L790 804 Q740 677 718 630 L941 630 L941 585 L717 585 L717 432 L920 432 L920 387 L717 387 L717 233 L920 233 L920 188 L717 188 L717 32 L956 32 L956 -14 Z" /><glyph glyph-name="uni56FD" unicode="&#x56fd;" d="M787 177 L787 135 L223 135 L223 177 L473 177 L473 376 L269 376 L269 420 L473 420 L473 591 L239 591 L239 635 L764 635 L764 591 L518 591 L518 420 L738 420 L738 376 L518 376 L518 177 L787 177 ZM631 344 Q709 277 743 226 L710 203 Q670 264 598 324 L631 344 ZM859 21 L859 739 L140 739 L140 21 L859 21 ZM909 784 L909 -75 L859 -75 L859 -24 L140 -24 L140 -75 L92 -75 L92 784 L909 784 Z" /><glyph glyph-name="uni5728" unicode="&#x5728;" d="M378 622 Q321 504 255 414 L255 -69 L208 -69 L208 356 Q145 284 76 233 Q60 260 48 273 Q216 397 325 622 L68 622 L68 669 L346 669 Q380 746 404 833 L453 820 Q425 729 398 669 L932 669 L932 622 L378 622 ZM934 -4 L934 -50 L328 -50 L328 -4 L605 -4 L605 311 L368 311 L368 357 L605 357 L605 565 L653 565 L653 357 L895 357 L895 311 L653 311 L653 -4 L934 -4 Z" /><glyph glyph-name="uni586B" unicode="&#x586b;" d="M816 574 L470 574 L470 497 L816 497 L816 574 ZM816 460 L470 460 L470 381 L816 381 L816 460 ZM816 343 L470 343 L470 264 L816 264 L816 343 ZM616 698 L343 698 L343 741 L616 741 L616 833 L663 833 L663 741 L939 741 L939 698 L663 698 L663 613 L863 613 L863 226 L425 226 L425 613 L616 613 L616 698 ZM317 160 L953 160 L953 116 L317 116 L317 160 ZM372 226 Q334 209 208 155 L60 91 L41 139 Q52 143 184 197 L184 539 L58 539 L58 586 L184 586 L184 821 L230 821 L230 586 L350 586 L350 539 L230 539 L230 217 L361 272 L372 226 ZM568 73 Q473 -12 322 -78 Q310 -62 285 -42 Q439 16 523 90 L568 73 ZM737 94 Q876 20 961 -46 L918 -74 Q841 -9 705 67 L737 94 Z" /><glyph glyph-name="uni5FD7" unicode="&#x5fd7;" d="M474 629 L60 629 L60 676 L474 676 L474 833 L522 833 L522 676 L943 676 L943 629 L522 629 L522 434 L883 434 L883 387 L124 387 L124 434 L474 434 L474 629 ZM404 360 Q536 296 598 214 L563 180 Q498 264 371 329 L404 360 ZM36 -17 Q139 51 176 230 L218 219 Q176 26 74 -46 L36 -17 ZM632 -20 Q670 -20 681 3 Q692 25 696 112 Q715 98 741 92 Q736 -5 717 -35 Q696 -66 635 -66 L422 -66 Q352 -66 329 -51 Q305 -35 305 13 L305 248 L352 248 L352 13 Q352 -8 365 -14 Q378 -20 422 -20 L632 -20 ZM760 254 Q904 124 953 -1 L910 -25 Q861 102 720 231 L760 254 Z" /><glyph glyph-name="uni613F" unicode="&#x613f;" d="M785 633 L304 633 L304 568 L785 568 L785 633 ZM785 531 L304 531 L304 465 L785 465 L785 531 ZM177 603 Q177 350 81 217 Q66 234 44 247 Q131 367 131 603 L131 785 L894 785 L894 743 L560 743 L531 670 L832 670 L832 427 L559 427 L559 274 Q559 237 532 228 Q511 221 419 221 Q537 172 596 113 L566 79 Q500 145 387 191 L417 222 Q412 241 400 262 Q477 260 497 262 Q512 262 512 275 L512 427 L259 427 L259 670 L484 670 Q498 703 508 743 L177 743 L177 603 ZM690 400 Q827 334 899 252 L867 219 Q801 297 661 371 L690 400 ZM401 379 Q324 290 210 224 Q197 239 177 257 Q293 320 359 394 L401 379 ZM43 -18 Q142 36 186 160 L228 144 Q173 7 82 -47 L43 -18 ZM630 -21 Q665 -21 674 -3 Q684 15 687 86 Q703 76 733 68 Q728 -15 709 -40 Q690 -66 634 -66 L424 -66 Q355 -66 332 -52 Q309 -38 309 7 L309 162 L356 162 L356 7 Q356 -10 368 -16 Q381 -21 424 -21 L630 -21 ZM764 170 Q896 81 951 -15 L913 -43 Q857 53 727 143 L764 170 Z" /><glyph glyph-name="uni62A5" unicode="&#x62a5;" d="M383 347 L253 305 L253 -5 Q253 -52 218 -65 Q190 -74 71 -74 Q67 -49 54 -28 Q142 -31 182 -28 Q205 -27 205 -5 L205 291 Q134 267 55 244 L39 293 Q98 309 205 341 L205 577 L54 577 L54 624 L205 624 L205 832 L253 832 L253 624 L376 624 L376 577 L253 577 L253 355 L376 392 L383 347 ZM569 417 Q623 273 724 152 Q818 276 858 417 L569 417 ZM917 452 Q872 264 756 117 Q848 18 955 -29 Q936 -45 920 -70 Q816 -18 725 81 Q641 -16 533 -74 Q524 -62 501 -41 Q611 18 694 116 Q585 246 522 417 L479 417 L479 -73 L432 -73 L432 799 L881 799 Q881 783 880 776 Q871 587 845 561 Q825 541 782 540 Q722 538 617 544 Q615 568 603 586 Q673 580 763 580 Q796 580 806 587 Q824 607 831 753 L479 753 L479 461 L876 461 L886 464 L917 452 Z" /><glyph glyph-name="uni6559" unicode="&#x6559;" d="M316 163 L316 -16 Q316 -59 285 -68 Q262 -77 157 -77 Q153 -58 139 -31 Q229 -33 252 -31 Q269 -31 269 -16 L269 157 L52 130 L44 177 Q115 184 269 202 L269 298 L299 298 Q355 338 399 385 L254 385 Q172 310 64 248 Q48 268 26 284 Q108 327 182 385 L127 385 L127 427 L231 427 Q274 465 316 514 L48 514 L48 559 L233 559 L233 675 L90 675 L90 719 L233 719 L233 833 L279 833 L279 719 L422 719 L422 675 L279 675 L279 559 L352 559 Q438 672 493 811 L539 797 Q483 662 409 559 L529 559 L529 514 L375 514 Q341 470 298 427 L437 427 L447 430 L478 409 Q415 328 316 261 L316 208 L536 234 L537 191 L316 163 ZM626 594 Q661 384 728 238 Q803 379 835 599 L628 599 L626 594 ZM885 599 Q844 339 754 187 Q838 34 962 -32 Q941 -48 926 -72 Q807 -3 725 142 Q635 11 479 -71 Q469 -51 448 -28 Q609 47 700 190 Q635 327 597 516 Q558 424 515 364 Q497 380 473 394 Q585 542 638 832 L687 823 Q669 733 643 645 L954 645 L954 599 L885 599 Z" /><glyph glyph-name="uni670D" unicode="&#x670d;" d="M348 314 L348 511 L164 511 L164 439 Q164 380 161 314 L348 314 ZM164 749 L164 557 L348 557 L348 749 L164 749 ZM394 -8 Q394 -52 363 -65 Q337 -74 233 -73 Q231 -53 218 -28 Q306 -30 328 -28 Q348 -27 348 -7 L348 268 L158 268 Q143 49 82 -75 Q64 -57 42 -51 Q119 105 119 439 L119 794 L394 794 L394 -8 ZM626 411 Q673 260 754 146 Q838 263 877 411 L626 411 ZM930 447 Q888 251 781 110 Q860 13 960 -38 Q942 -53 927 -75 Q834 -24 754 75 Q679 -11 588 -64 Q578 -47 559 -29 Q650 19 727 111 Q636 237 583 411 L547 411 L547 -73 L500 -73 L500 791 L902 791 L902 598 Q902 557 871 547 Q845 539 723 539 Q720 554 705 582 Q814 580 836 582 Q856 582 856 598 L856 746 L547 746 L547 456 L893 456 L902 458 L930 447 Z" /><glyph glyph-name="uni7EBF" unicode="&#x7ebf;" d="M859 691 Q808 735 702 781 L729 808 Q822 774 886 725 L859 691 ZM376 302 Q374 280 378 261 Q100 203 77 190 Q75 209 62 237 Q87 243 134 304 Q177 351 249 460 Q89 437 72 428 Q64 457 56 476 Q73 479 111 539 Q194 667 249 829 L295 807 Q223 627 127 488 L278 505 Q309 552 344 618 L386 594 Q269 394 154 260 L376 302 ZM393 85 Q284 55 70 -1 L59 46 Q133 62 387 127 L393 85 ZM941 328 Q868 210 730 109 Q787 -23 869 -23 Q893 -23 903 1 Q913 25 917 94 Q933 77 954 69 Q947 -12 929 -40 Q911 -69 864 -69 Q756 -69 692 82 Q562 -4 417 -53 Q403 -31 386 -14 Q547 37 675 125 Q641 224 621 367 L423 330 L414 373 L615 411 Q608 464 601 567 L442 543 L434 587 L598 611 Q593 706 591 833 L639 833 Q639 703 644 618 L898 655 L906 612 L646 574 Q653 474 660 420 L927 470 L936 427 L666 376 Q682 247 715 152 Q833 242 900 346 L941 328 Z" /><glyph glyph-name="uni8003" unicode="&#x8003;" d="M567 483 Q479 421 355 355 L351 338 Q647 367 778 406 L813 371 Q660 329 342 299 L321 214 L810 214 Q809 197 807 189 Q776 -20 730 -58 Q708 -77 661 -78 Q587 -78 508 -73 Q506 -50 492 -30 Q570 -37 649 -37 Q682 -37 693 -29 Q730 -1 756 171 L310 171 L294 116 L245 125 Q269 197 299 326 Q185 270 63 224 Q46 247 29 263 Q172 312 312 383 L317 406 L349 402 Q427 444 487 483 L69 483 L69 527 L412 527 L412 662 L145 662 L145 705 L412 705 L412 831 L460 831 L460 705 L715 705 L715 662 L460 662 L460 527 L553 527 Q723 646 837 780 L877 756 Q774 636 629 527 L916 527 L916 483 L567 483 Z" /><glyph glyph-name="uni80B2" unicode="&#x80b2;" d="M747 139 L747 232 L261 232 L261 139 L747 139 ZM261 367 L261 273 L747 273 L747 367 L261 367 ZM795 -16 Q795 -59 762 -70 Q736 -78 608 -78 Q603 -55 590 -33 Q693 -36 726 -34 Q747 -33 747 -16 L747 99 L261 99 L261 -74 L213 -74 L213 410 L795 410 L795 -16 ZM936 682 L400 682 L407 679 Q345 590 299 535 L759 545 Q693 597 623 642 L658 669 Q826 567 921 467 L885 434 Q850 471 808 506 Q405 492 111 485 L108 532 L243 534 Q295 593 350 682 L67 682 L67 727 L473 727 L473 834 L522 834 L522 727 L936 727 L936 682 Z" /><glyph glyph-name="uni90E8" unicode="&#x90e8;" d="M553 669 L76 669 L76 714 L286 714 L286 831 L333 831 L333 714 L553 714 L553 669 ZM371 467 Q412 552 437 648 L484 633 Q433 500 410 453 L371 467 ZM189 458 Q181 536 141 631 L181 642 Q222 551 233 470 L189 458 ZM168 249 L168 34 L457 34 L457 249 L168 249 ZM122 294 L504 294 L504 -71 L457 -71 L457 -11 L168 -11 L168 -74 L122 -74 L122 294 ZM48 440 L561 440 L561 395 L48 395 L48 440 ZM957 750 Q877 576 810 448 Q949 324 949 198 Q949 108 903 77 Q876 61 841 57 Q799 54 753 57 Q749 84 735 105 Q778 100 822 102 Q851 104 870 114 Q901 133 901 201 Q901 317 755 440 Q827 579 890 725 L657 725 L657 -72 L610 -72 L610 772 L916 772 L922 774 L957 750 Z" /></font>
</defs>
</svg>
